<svg id="Layer_1" data-name="Layer 1" xmlns="http://www.w3.org/2000/svg" viewBox="0 0 50.98 58.32"><title>bassClef</title><path d="M137.54,178.29a12.61,12.61,0,0,1,1.55-.4,5.63,5.63,0,0,1,5.42,2,5.79,5.79,0,0,1-.1,7.57,5.67,5.67,0,0,1-4.87,2,9.55,9.55,0,0,1-4.41-1.31,7.79,7.79,0,0,1-3.72-5.44,12.41,12.41,0,0,1,1-7.45,15.12,15.12,0,0,1,7.88-7.7,16.45,16.45,0,0,1,5.33-1.42,18.56,18.56,0,0,1,9.44,1.55,19,19,0,0,1,8.29,7.11,18.47,18.47,0,0,1,2.8,7.26,21.19,21.19,0,0,1,0,6.36,28.67,28.67,0,0,1-3.45,9.92,46.73,46.73,0,0,1-7.2,9.59,75.93,75.93,0,0,1-14.08,11.51,70.13,70.13,0,0,1-8.78,4.85l-.19.08-2.4-5.35.52-.24a70.88,70.88,0,0,0,10.56-6.23,67.9,67.9,0,0,0,9.83-8.33,42.08,42.08,0,0,0,6.41-8.43,24.67,24.67,0,0,0,2.68-6.68,16.13,16.13,0,0,0,.41-5.36,13.12,13.12,0,0,0-11.06-11.68,11.64,11.64,0,0,0-7.29,1.08,9.1,9.1,0,0,0-4.45,4.85l-.08.21A.2.2,0,0,1,137.54,178.29Z" transform="translate(-130.02 -166.09)"/><path d="M172.21,191a4.4,4.4,0,1,1,4.41,4.39A4.4,4.4,0,0,1,172.21,191Z" transform="translate(-130.02 -166.09)"/><path d="M176.6,172a4.39,4.39,0,1,1-4.39,4.37A4.39,4.39,0,0,1,176.6,172Z" transform="translate(-130.02 -166.09)"/></svg>