<svg id="Layer_1" data-name="Layer 1" xmlns="http://www.w3.org/2000/svg" viewBox="0 0 41.75 77.85"><defs><style>.cls-1{fill:#1f1f1f;}.cls-2{fill:#3c3c3c;}.cls-3{fill:#969696;}.cls-4{fill:#535353;}.cls-5{fill:#656565;}.cls-6{fill:#191919;}</style></defs><title>eighthNote</title><path d="M160.16,288.18c.37-.82.76-1.63,1.12-2.45a54.94,54.94,0,0,0,3.05-8.63,34.76,34.76,0,0,0,.85-4.53,23.82,23.82,0,0,0,.1-4.85A18.09,18.09,0,0,0,159.74,256a28.26,28.26,0,0,0-6-4.45A46,46,0,0,0,149,249.2l-.1,0v42.32c0,.9,0,1.79-.06,2.69a15.36,15.36,0,0,1-3,8.27,13.23,13.23,0,0,1-5.86,4.34,15.75,15.75,0,0,1-6.22,1.07,12.53,12.53,0,0,1-4.4-.87,6.11,6.11,0,0,1-2.44-1.66,3.93,3.93,0,0,1-.87-2.23,8.62,8.62,0,0,1,.76-4.16,16.24,16.24,0,0,1,3.67-5.33,16.58,16.58,0,0,1,5.36-3.58,13.85,13.85,0,0,1,6.2-1,14.16,14.16,0,0,1,4.26.95l.12,0h.05V230.21c0-.07-.05-.15,0-.21a1.47,1.47,0,0,1,.25.52c.55,1.31,1.12,2.6,1.72,3.89.52,1.12,1.07,2.22,1.64,3.32.74,1.43,1.53,2.83,2.35,4.22.62,1,1.26,2.07,1.94,3.07a62.63,62.63,0,0,0,4.2,5.65c.61.72,1.23,1.43,1.88,2.13a33.35,33.35,0,0,1,3.67,4.7c.4.63.77,1.28,1.11,1.94a22.72,22.72,0,0,1,1.55,3.71,21.29,21.29,0,0,1,.81,3.62,13.43,13.43,0,0,1,.13,1.68.07.07,0,0,0,0,.06v.06c0,.08,0,.16,0,.24V270c0,.08,0,.17,0,.25v.36s0,0,0,.06a27.15,27.15,0,0,1-3.78,12,42.43,42.43,0,0,1-3.73,5.49l-.06.07S160.14,288.22,160.16,288.18Z" transform="translate(-126.04 -230)"/><path class="cls-1" d="M167.76,270v-.82a0,0,0,0,1,0,0V270S167.77,270.05,167.76,270Z" transform="translate(-126.04 -230)"/><path class="cls-2" d="M167.79,269.22h0V269h0Z" transform="translate(-126.04 -230)"/><path class="cls-3" d="M167.76,268.8c0-.08,0-.16,0-.23v.23Z" transform="translate(-126.04 -230)"/><path class="cls-4" d="M167.76,270h0v.23C167.72,270.19,167.77,270.11,167.76,270Z" transform="translate(-126.04 -230)"/><path class="cls-5" d="M167.76,268.8h0V269h0Z" transform="translate(-126.04 -230)"/><path class="cls-6" d="M160.16,288.18l0,0c0,.05,0,.07-.09.11A.22.22,0,0,1,160.16,288.18Z" transform="translate(-126.04 -230)"/></svg>