<svg id="Layer_1" data-name="Layer 1" xmlns="http://www.w3.org/2000/svg" viewBox="0 0 10.75 23.77"><title>sharp</title><path d="M92.93,239.77h-.79v-5.1l-2.08.9c0-.71,0-1.35,0-2,0-.06.09-.14.16-.19a.85.85,0,0,1,.19-.1c.55-.27,1.35-.4,1.6-.84s.1-1.27.1-1.93c0-1.44,0-2.89,0-4.43l-2.06.92c0-.67,0-1.28,0-1.89,0-.09.16-.22.27-.27.57-.28,1.39-.4,1.67-.86s.1-1.27.1-1.93c0-.89,0-1.79,0-2.72h.79v4.36l3-1.31c.54-.25,1.08-.51,1.64-.73a.58.58,0,0,0,.42-.65c0-1.48,0-3,0-4.44,0-.18,0-.36,0-.56h.77v5l2-.92v2c-.54.26-1.12.52-1.68.82a.6.6,0,0,0-.32.43c0,2,0,4.09,0,6.22l2.06-.92c0,.67,0,1.26,0,1.86,0,.11-.14.22-.22.33s-.1,0-.15.07c-.56.27-1.32.4-1.61.85s-.07,1.16-.07,1.77c0,.93,0,1.86,0,2.79,0,0,0,.07-.06.12h-.73v-4.36c-.35.14-.63.23-.9.36-1.23.55-2.45,1.11-3.69,1.65a.61.61,0,0,0-.42.66c0,1.47,0,2.93,0,4.39Zm5-16.35c-1.65.75-3.22,1.46-4.78,2.2a.63.63,0,0,0-.2.45c0,.73,0,1.46,0,2.2v3.9c1.65-.73,3.22-1.43,4.79-2.15.11,0,.19-.26.19-.4C97.92,227.59,97.92,225.56,97.92,223.42Z" transform="translate(-90.05 -216)"/></svg>