<svg id="Layer_1" data-name="Layer 1" xmlns="http://www.w3.org/2000/svg" viewBox="0 0 41.79 117.89"><defs><style>.cls-1{fill:#717171;}.cls-2{fill:#959595;}.cls-3{fill:#9f9f9f;}.cls-4{fill:#bababa;}.cls-5{fill:#a0a0a0;}.cls-6{fill:#707070;}.cls-7{fill:#d6d6d6;}.cls-8{fill:#b0b0b0;}.cls-9{fill:#d4d4d4;}</style></defs><title>trebleClef</title><path class="cls-1" d="M158,240.43h-.53s0-.05,0-.06a.72.72,0,0,1,.5,0S158,240.4,158,240.43Z" transform="translate(-135 -122.54)"/><path class="cls-2" d="M135,189.31v-.45s.05,0,.06,0a.61.61,0,0,1,0,.42A0,0,0,0,1,135,189.31Z" transform="translate(-135 -122.54)"/><path class="cls-2" d="M135,190v-.41s0,0,.06,0a.5.5,0,0,1,0,.38S135,190,135,190Z" transform="translate(-135 -122.54)"/><path class="cls-3" d="M158,240.43v0a.35.35,0,0,1,.39,0,0,0,0,0,1,0,.06Z" transform="translate(-135 -122.54)"/><path class="cls-4" d="M135,188.86h0v-.37h0A.29.29,0,0,1,135,188.86Z" transform="translate(-135 -122.54)"/><path class="cls-5" d="M157.5,240.4v0h-.37s0-.05,0-.06A.3.3,0,0,1,157.5,240.4Z" transform="translate(-135 -122.54)"/><path class="cls-6" d="M135,189.6h0v-.28h0A.19.19,0,0,1,135,189.6Z" transform="translate(-135 -122.54)"/><path class="cls-7" d="M135,190.53h0v-.28a0,0,0,0,1,.06,0A.24.24,0,0,1,135,190.53Z" transform="translate(-135 -122.54)"/><path class="cls-8" d="M135,190.25h0V190h0A.17.17,0,0,1,135,190.25Z" transform="translate(-135 -122.54)"/><path class="cls-7" d="M157.13,240.39v0h-.24v0A.16.16,0,0,1,157.13,240.39Z" transform="translate(-135 -122.54)"/><path class="cls-9" d="M158.44,240.43v0a.13.13,0,0,1,.2,0v0Z" transform="translate(-135 -122.54)"/><path d="M176.64,193.28a19.17,19.17,0,0,0-4.59-10.19,11.7,11.7,0,0,0-5.74-3.73,12.71,12.71,0,0,0-6.65-.06c-.16,0-.22,0-.25-.16q-1.18-5.67-2.38-11.36a.25.25,0,0,1,.07-.27,49,49,0,0,0,7-10.59,34.78,34.78,0,0,0,3.59-12.28,25.23,25.23,0,0,0-.21-6.08,40.8,40.8,0,0,0-1.78-6.87A32.44,32.44,0,0,0,162,123.9a7.05,7.05,0,0,0-.58-.77,1.42,1.42,0,0,0-1.95-.35,6.08,6.08,0,0,0-1.28,1,35.6,35.6,0,0,0-3.26,3.79,15.37,15.37,0,0,0-2.42,4.49,30.62,30.62,0,0,0-1.5,8.65,52.93,52.93,0,0,0,.07,6c.14,2.12.37,4.22.68,6.33s.66,3.95,1.09,5.91a.23.23,0,0,1-.09.26l-.55.49c-1.77,1.57-3.56,3.13-5.18,4.85a51.6,51.6,0,0,0-8.08,11A30,30,0,0,0,135,188.49v2a24.24,24.24,0,0,0,.31,2.7,22.34,22.34,0,0,0,3.51,8.58,32.36,32.36,0,0,0,6.68,7.14,18,18,0,0,0,9.88,4,20.07,20.07,0,0,0,8.42-1.05c.18-.06.23,0,.27.15.63,3.06,1.27,6.11,1.9,9.17a38.81,38.81,0,0,1,.86,5.12,15.32,15.32,0,0,1-.39,5,8.72,8.72,0,0,1-11.57,6.2,6.58,6.58,0,0,1-3.47-2.53,3.83,3.83,0,0,1-.4-.72l.29,0a6.19,6.19,0,1,0-4.72-9.06,9.88,9.88,0,0,0-1,3.08,9.11,9.11,0,0,0,1.59,7,11.67,11.67,0,0,0,5.22,4,14.72,14.72,0,0,0,4.44,1h1.75a14.53,14.53,0,0,0,2-.29,10.2,10.2,0,0,0,6.94-5.11,13.36,13.36,0,0,0,1.54-5.6,23.25,23.25,0,0,0-.47-6.23c-.82-4-1.67-8-2.51-11.94a.26.26,0,0,1,.17-.34,19.48,19.48,0,0,0,6.58-5.09A15.69,15.69,0,0,0,176.64,193.28Zm-21.43-53a14.94,14.94,0,0,1,2-4.44,7.5,7.5,0,0,1,1.88-1.93,3.84,3.84,0,0,1,2.09-.74,2.82,2.82,0,0,1,2.2.92,5.23,5.23,0,0,1,1.29,2.71,12.6,12.6,0,0,1,.07,4.2,21.81,21.81,0,0,1-4.49,10.45,46.33,46.33,0,0,1-5.38,5.82l-.09.06q-.11-.61-.18-1.2a50.5,50.5,0,0,1-.53-6.26A31.4,31.4,0,0,1,155.21,140.24Zm8.17,69.57a15.1,15.1,0,0,1-9.86.44A21.06,21.06,0,0,1,143.4,204,13.45,13.45,0,0,1,140,193.77a23.21,23.21,0,0,1,2.27-8.25,43.11,43.11,0,0,1,6.83-10.23,28.67,28.67,0,0,1,3.27-3.25,34.73,34.73,0,0,0,2.92-2.56c.13.61.24,1.17.36,1.74.6,2.85,1.19,5.71,1.79,8.56,0,.18,0,.24-.17.31a16.76,16.76,0,0,0-7.2,5.58,9.77,9.77,0,0,0-1.79,4,11.88,11.88,0,0,0-.12,2.38,21.7,21.7,0,0,0,.41,4.18,10.88,10.88,0,0,0,4.94,7.26c.8.51,1.61,1,2.45,1.43a2,2,0,0,0,1.38.22,1.11,1.11,0,0,0,.34-.14.52.52,0,0,0,.19-.74,1.5,1.5,0,0,0-.48-.52,6.4,6.4,0,0,0-.92-.52,7.85,7.85,0,0,1-4.34-5.46,7,7,0,0,1,.32-3.93,10.44,10.44,0,0,1,3.41-4.86,7.85,7.85,0,0,1,3-1.41c.15,0,.18,0,.21.14q2.26,10.89,4.53,21.78C163.62,209.67,163.57,209.74,163.38,209.81Zm6.84-5.6a14.4,14.4,0,0,1-4.43,4.36c-.19.12-.19.12-.24-.1l-3.6-17.2c-.26-1.25-.52-2.51-.79-3.75,0-.18,0-.19.16-.18a11.75,11.75,0,0,1,5.16,1.59,13.23,13.23,0,0,1,4.06,3.57,8.68,8.68,0,0,1,1.74,5.4A11.89,11.89,0,0,1,170.22,204.21Z" transform="translate(-135 -122.54)"/></svg>